<?xml version="1.0" encoding="UTF-8" standalone="no"?>
<!-- Created with Inkscape (http://www.inkscape.org/) -->

<svg
   xmlns:dc="http://purl.org/dc/elements/1.1/"
   xmlns:cc="http://creativecommons.org/ns#"
   xmlns:rdf="http://www.w3.org/1999/02/22-rdf-syntax-ns#"
   xmlns:svg="http://www.w3.org/2000/svg"
   xmlns="http://www.w3.org/2000/svg"
   xmlns:sodipodi="http://sodipodi.sourceforge.net/DTD/sodipodi-0.dtd"
   xmlns:inkscape="http://www.inkscape.org/namespaces/inkscape"
   id="svg2"
   version="1.1"
   inkscape:version="0.48.4 r9939"
   width="640"
   height="640"
   xml:space="preserve"
   sodipodi:docname="icon-twitter.svg"><metadata
     id="metadata8"><rdf:RDF><cc:Work
         rdf:about=""><dc:format>image/svg+xml</dc:format><dc:type
           rdf:resource="http://purl.org/dc/dcmitype/StillImage" /><dc:title /></cc:Work></rdf:RDF></metadata><defs
     id="defs6"><clipPath
       clipPathUnits="userSpaceOnUse"
       id="clipPath16"><path
         d="M 0,512 512,512 512,0 0,0 0,512 z"
         id="path18" /></clipPath><clipPath
       clipPathUnits="userSpaceOnUse"
       id="clipPath28"><path
         d="m -2149.49,394.126 5362.86,0 0,-5337.876 -5362.86,0 0,5337.876 z"
         id="path30" /></clipPath></defs><sodipodi:namedview
     pagecolor="#ffffff"
     bordercolor="#666666"
     borderopacity="1"
     objecttolerance="10"
     gridtolerance="10"
     guidetolerance="10"
     inkscape:pageopacity="0"
     inkscape:pageshadow="2"
     inkscape:window-width="1920"
     inkscape:window-height="1018"
     id="namedview4"
     showgrid="false"
     inkscape:zoom="2.95"
     inkscape:cx="77.925774"
     inkscape:cy="587.9432"
     inkscape:window-x="-8"
     inkscape:window-y="-8"
     inkscape:window-maximized="1"
     inkscape:current-layer="g10" /><g
     id="g10"
     inkscape:groupmode="layer"
     inkscape:label="150 Simple Vector Social Media Icons"
     transform="matrix(1.25,0,0,-1.25,0,640)"><g
       id="g12"
       transform="matrix(0.12903226,0,0,0.12903226,-1.3034444,446.69663)"><g
         id="g14"
         clip-path="url(#clipPath16)"><g
           id="g20"
           transform="translate(504,37.1611)"><path
             d="m 0,0 c 0,-16.041 -13.123,-29.163 -29.162,-29.163 l -437.675,0 C -482.876,-29.163 -496,-16.041 -496,0 l 0,437.678 c 0,16.04 13.124,29.163 29.163,29.163 l 437.675,0 C -13.123,466.841 0,453.718 0,437.678 L 0,0 z"
             style="fill:#4e4e4e;fill-opacity:1;fill-rule:nonzero;stroke:none"
             id="path22"
             inkscape:connector-curvature="0" /></g><g
           id="g24"><g
             id="g26" /><g
             id="g32"><g
               clip-path="url(#clipPath28)"
               id="g34"
               style="opacity:0.39999402"><g
                 transform="translate(398.7598,336.4575)"
                 id="g36"><path
                   d="M 0,0 C -10.138,-4.515 -21.03,-7.547 -32.454,-8.903 -20.796,-1.915 -11.839,9.153 -7.62,22.361 -18.538,15.89 -30.637,11.171 -43.501,8.64 c -10.32,10.988 -25.017,17.857 -41.254,17.857 -31.222,0 -56.548,-25.315 -56.548,-56.528 0,-4.426 0.507,-8.738 1.479,-12.885 -46.98,2.363 -88.637,24.874 -116.508,59.066 -4.855,-8.346 -7.66,-18.057 -7.66,-28.429 0,-19.602 9.985,-36.899 25.159,-47.044 -9.27,0.284 -17.993,2.843 -25.613,7.075 l 0,-0.714 c 0,-27.379 19.487,-50.225 45.345,-55.432 -4.753,-1.29 -9.736,-1.986 -14.89,-1.986 -3.649,0 -7.191,0.359 -10.645,1.033 7.191,-22.464 28.08,-38.806 52.809,-39.268 -19.355,-15.143 -43.708,-24.191 -70.204,-24.191 -4.556,0 -9.061,0.271 -13.489,0.779 25.029,-16.033 54.745,-25.385 86.652,-25.385 103.969,0 160.827,86.124 160.827,160.819 0,2.453 -0.051,4.901 -0.155,7.315 C -17.162,-21.315 -7.581,-11.351 0,0"
                   style="fill:#000000;fill-opacity:1;fill-rule:nonzero;stroke:none"
                   id="path38"
                   inkscape:connector-curvature="0" /></g></g></g></g><g
           id="g40"
           transform="translate(393.7598,341.4575)"><path
             d="M 0,0 C -10.138,-4.515 -21.03,-7.547 -32.454,-8.903 -20.796,-1.915 -11.839,9.153 -7.62,22.361 -18.538,15.89 -30.637,11.171 -43.501,8.64 c -10.32,10.988 -25.017,17.857 -41.254,17.857 -31.222,0 -56.548,-25.315 -56.548,-56.528 0,-4.426 0.507,-8.738 1.479,-12.885 -46.98,2.363 -88.637,24.874 -116.508,59.066 -4.855,-8.346 -7.66,-18.057 -7.66,-28.429 0,-19.602 9.985,-36.899 25.159,-47.044 -9.27,0.284 -17.993,2.843 -25.613,7.075 l 0,-0.714 c 0,-27.379 19.487,-50.225 45.345,-55.432 -4.753,-1.29 -9.736,-1.986 -14.89,-1.986 -3.649,0 -7.191,0.359 -10.645,1.033 7.191,-22.464 28.08,-38.806 52.809,-39.268 -19.355,-15.143 -43.708,-24.191 -70.204,-24.191 -4.556,0 -9.061,0.271 -13.489,0.779 25.029,-16.033 54.745,-25.385 86.652,-25.385 103.969,0 160.827,86.124 160.827,160.819 0,2.453 -0.051,4.901 -0.155,7.315 C -17.162,-21.315 -7.581,-11.351 0,0"
             style="fill:#ffffff;fill-opacity:1;fill-rule:nonzero;stroke:none"
             id="path42"
             inkscape:connector-curvature="0" /></g></g></g></g></svg>